<?xml version="1.0" encoding="utf-8"?>
<svg xmlns="http://www.w3.org/2000/svg" xmlns:xlink="http://www.w3.org/1999/xlink" width="600" height="400" viewBox="0 0 2400 1600">
<defs>
  <clipPath id="clip640">
    <rect x="0" y="0" width="2400" height="1600"/>
  </clipPath>
</defs>
<path clip-path="url(#clip640)" d="M0 1600 L2400 1600 L2400 0 L0 0  Z" fill="#ffffff" fill-rule="evenodd" fill-opacity="1"/>
<defs>
  <clipPath id="clip641">
    <rect x="480" y="0" width="1681" height="1600"/>
  </clipPath>
</defs>
<path clip-path="url(#clip640)" d="M140.696 1486.45 L2352.76 1486.45 L2352.76 47.2441 L140.696 47.2441  Z" fill="#ffffff" fill-rule="evenodd" fill-opacity="1"/>
<defs>
  <clipPath id="clip642">
    <rect x="140" y="47" width="2213" height="1440"/>
  </clipPath>
</defs>
<polyline clip-path="url(#clip642)" style="stroke:#000000; stroke-linecap:round; stroke-linejoin:round; stroke-width:2; stroke-opacity:0.1; fill:none" points="188.708,1486.45 188.708,47.2441 "/>
<polyline clip-path="url(#clip642)" style="stroke:#000000; stroke-linecap:round; stroke-linejoin:round; stroke-width:2; stroke-opacity:0.1; fill:none" points="626.508,1486.45 626.508,47.2441 "/>
<polyline clip-path="url(#clip642)" style="stroke:#000000; stroke-linecap:round; stroke-linejoin:round; stroke-width:2; stroke-opacity:0.1; fill:none" points="1064.31,1486.45 1064.31,47.2441 "/>
<polyline clip-path="url(#clip642)" style="stroke:#000000; stroke-linecap:round; stroke-linejoin:round; stroke-width:2; stroke-opacity:0.1; fill:none" points="1502.11,1486.45 1502.11,47.2441 "/>
<polyline clip-path="url(#clip642)" style="stroke:#000000; stroke-linecap:round; stroke-linejoin:round; stroke-width:2; stroke-opacity:0.1; fill:none" points="1939.91,1486.45 1939.91,47.2441 "/>
<polyline clip-path="url(#clip640)" style="stroke:#000000; stroke-linecap:round; stroke-linejoin:round; stroke-width:4; stroke-opacity:1; fill:none" points="140.696,1486.45 2352.76,1486.45 "/>
<polyline clip-path="url(#clip640)" style="stroke:#000000; stroke-linecap:round; stroke-linejoin:round; stroke-width:4; stroke-opacity:1; fill:none" points="188.708,1486.45 188.708,1467.55 "/>
<polyline clip-path="url(#clip640)" style="stroke:#000000; stroke-linecap:round; stroke-linejoin:round; stroke-width:4; stroke-opacity:1; fill:none" points="626.508,1486.45 626.508,1467.55 "/>
<polyline clip-path="url(#clip640)" style="stroke:#000000; stroke-linecap:round; stroke-linejoin:round; stroke-width:4; stroke-opacity:1; fill:none" points="1064.31,1486.45 1064.31,1467.55 "/>
<polyline clip-path="url(#clip640)" style="stroke:#000000; stroke-linecap:round; stroke-linejoin:round; stroke-width:4; stroke-opacity:1; fill:none" points="1502.11,1486.45 1502.11,1467.55 "/>
<polyline clip-path="url(#clip640)" style="stroke:#000000; stroke-linecap:round; stroke-linejoin:round; stroke-width:4; stroke-opacity:1; fill:none" points="1939.91,1486.45 1939.91,1467.55 "/>
<path clip-path="url(#clip640)" d="M188.708 1517.37 Q185.097 1517.37 183.268 1520.93 Q181.462 1524.47 181.462 1531.6 Q181.462 1538.71 183.268 1542.27 Q185.097 1545.82 188.708 1545.82 Q192.342 1545.82 194.147 1542.27 Q195.976 1538.71 195.976 1531.6 Q195.976 1524.47 194.147 1520.93 Q192.342 1517.37 188.708 1517.37 M188.708 1513.66 Q194.518 1513.66 197.573 1518.27 Q200.652 1522.85 200.652 1531.6 Q200.652 1540.33 197.573 1544.94 Q194.518 1549.52 188.708 1549.52 Q182.898 1549.52 179.819 1544.94 Q176.763 1540.33 176.763 1531.6 Q176.763 1522.85 179.819 1518.27 Q182.898 1513.66 188.708 1513.66 Z" fill="#000000" fill-rule="nonzero" fill-opacity="1" /><path clip-path="url(#clip640)" d="M615.351 1530.21 Q618.707 1530.93 620.582 1533.2 Q622.48 1535.47 622.48 1538.8 Q622.48 1543.92 618.962 1546.72 Q615.443 1549.52 608.962 1549.52 Q606.786 1549.52 604.471 1549.08 Q602.18 1548.66 599.726 1547.81 L599.726 1543.29 Q601.67 1544.43 603.985 1545.01 Q606.3 1545.58 608.823 1545.58 Q613.221 1545.58 615.513 1543.85 Q617.828 1542.11 617.828 1538.8 Q617.828 1535.75 615.675 1534.03 Q613.545 1532.3 609.726 1532.3 L605.698 1532.3 L605.698 1528.45 L609.911 1528.45 Q613.36 1528.45 615.189 1527.09 Q617.018 1525.7 617.018 1523.11 Q617.018 1520.45 615.119 1519.03 Q613.244 1517.6 609.726 1517.6 Q607.805 1517.6 605.606 1518.01 Q603.407 1518.43 600.768 1519.31 L600.768 1515.14 Q603.43 1514.4 605.744 1514.03 Q608.082 1513.66 610.143 1513.66 Q615.467 1513.66 618.568 1516.09 Q621.67 1518.5 621.67 1522.62 Q621.67 1525.49 620.027 1527.48 Q618.383 1529.45 615.351 1530.21 Z" fill="#000000" fill-rule="nonzero" fill-opacity="1" /><path clip-path="url(#clip640)" d="M641.346 1517.37 Q637.735 1517.37 635.906 1520.93 Q634.101 1524.47 634.101 1531.6 Q634.101 1538.71 635.906 1542.27 Q637.735 1545.82 641.346 1545.82 Q644.98 1545.82 646.786 1542.27 Q648.615 1538.71 648.615 1531.6 Q648.615 1524.47 646.786 1520.93 Q644.98 1517.37 641.346 1517.37 M641.346 1513.66 Q647.156 1513.66 650.212 1518.27 Q653.291 1522.85 653.291 1531.6 Q653.291 1540.33 650.212 1544.94 Q647.156 1549.52 641.346 1549.52 Q635.536 1549.52 632.457 1544.94 Q629.402 1540.33 629.402 1531.6 Q629.402 1522.85 632.457 1518.27 Q635.536 1513.66 641.346 1513.66 Z" fill="#000000" fill-rule="nonzero" fill-opacity="1" /><path clip-path="url(#clip640)" d="M1049.71 1529.7 Q1046.57 1529.7 1044.71 1531.86 Q1042.89 1534.01 1042.89 1537.76 Q1042.89 1541.49 1044.71 1543.66 Q1046.57 1545.82 1049.71 1545.82 Q1052.86 1545.82 1054.69 1543.66 Q1056.54 1541.49 1056.54 1537.76 Q1056.54 1534.01 1054.69 1531.86 Q1052.86 1529.7 1049.71 1529.7 M1059 1515.05 L1059 1519.31 Q1057.24 1518.48 1055.43 1518.04 Q1053.65 1517.6 1051.89 1517.6 Q1047.26 1517.6 1044.81 1520.72 Q1042.38 1523.85 1042.03 1530.17 Q1043.39 1528.15 1045.45 1527.09 Q1047.51 1526 1049.99 1526 Q1055.2 1526 1058.21 1529.17 Q1061.24 1532.32 1061.24 1537.76 Q1061.24 1543.08 1058.09 1546.3 Q1054.95 1549.52 1049.71 1549.52 Q1043.72 1549.52 1040.55 1544.94 Q1037.38 1540.33 1037.38 1531.6 Q1037.38 1523.41 1041.26 1518.55 Q1045.15 1513.66 1051.7 1513.66 Q1053.46 1513.66 1055.25 1514.01 Q1057.05 1514.36 1059 1515.05 Z" fill="#000000" fill-rule="nonzero" fill-opacity="1" /><path clip-path="url(#clip640)" d="M1079.3 1517.37 Q1075.69 1517.37 1073.86 1520.93 Q1072.05 1524.47 1072.05 1531.6 Q1072.05 1538.71 1073.86 1542.27 Q1075.69 1545.82 1079.3 1545.82 Q1082.93 1545.82 1084.74 1542.27 Q1086.57 1538.71 1086.57 1531.6 Q1086.57 1524.47 1084.74 1520.93 Q1082.93 1517.37 1079.3 1517.37 M1079.3 1513.66 Q1085.11 1513.66 1088.16 1518.27 Q1091.24 1522.85 1091.24 1531.6 Q1091.24 1540.33 1088.16 1544.94 Q1085.11 1549.52 1079.3 1549.52 Q1073.49 1549.52 1070.41 1544.94 Q1067.35 1540.33 1067.35 1531.6 Q1067.35 1522.85 1070.41 1518.27 Q1073.49 1513.66 1079.3 1513.66 Z" fill="#000000" fill-rule="nonzero" fill-opacity="1" /><path clip-path="url(#clip640)" d="M1477.24 1548.13 L1477.24 1543.87 Q1479 1544.7 1480.8 1545.14 Q1482.61 1545.58 1484.34 1545.58 Q1488.97 1545.58 1491.4 1542.48 Q1493.86 1539.36 1494.2 1533.01 Q1492.86 1535.01 1490.8 1536.07 Q1488.74 1537.13 1486.24 1537.13 Q1481.06 1537.13 1478.02 1534.01 Q1475.01 1530.86 1475.01 1525.42 Q1475.01 1520.1 1478.16 1516.88 Q1481.31 1513.66 1486.54 1513.66 Q1492.54 1513.66 1495.69 1518.27 Q1498.86 1522.85 1498.86 1531.6 Q1498.86 1539.77 1494.97 1544.66 Q1491.1 1549.52 1484.55 1549.52 Q1482.79 1549.52 1480.99 1549.17 Q1479.18 1548.82 1477.24 1548.13 M1486.54 1533.48 Q1489.69 1533.48 1491.52 1531.32 Q1493.37 1529.17 1493.37 1525.42 Q1493.37 1521.7 1491.52 1519.54 Q1489.69 1517.37 1486.54 1517.37 Q1483.39 1517.37 1481.54 1519.54 Q1479.71 1521.7 1479.71 1525.42 Q1479.71 1529.17 1481.54 1531.32 Q1483.39 1533.48 1486.54 1533.48 Z" fill="#000000" fill-rule="nonzero" fill-opacity="1" /><path clip-path="url(#clip640)" d="M1517.26 1517.37 Q1513.65 1517.37 1511.82 1520.93 Q1510.01 1524.47 1510.01 1531.6 Q1510.01 1538.71 1511.82 1542.27 Q1513.65 1545.82 1517.26 1545.82 Q1520.89 1545.82 1522.7 1542.27 Q1524.53 1538.71 1524.53 1531.6 Q1524.53 1524.47 1522.7 1520.93 Q1520.89 1517.37 1517.26 1517.37 M1517.26 1513.66 Q1523.07 1513.66 1526.13 1518.27 Q1529.2 1522.85 1529.2 1531.6 Q1529.2 1540.33 1526.13 1544.94 Q1523.07 1549.52 1517.26 1549.52 Q1511.45 1549.52 1508.37 1544.94 Q1505.32 1540.33 1505.32 1531.6 Q1505.32 1522.85 1508.37 1518.27 Q1511.45 1513.66 1517.26 1513.66 Z" fill="#000000" fill-rule="nonzero" fill-opacity="1" /><path clip-path="url(#clip640)" d="M1899.52 1544.91 L1907.16 1544.91 L1907.16 1518.55 L1898.85 1520.21 L1898.85 1515.95 L1907.11 1514.29 L1911.79 1514.29 L1911.79 1544.91 L1919.42 1544.91 L1919.42 1548.85 L1899.52 1548.85 L1899.52 1544.91 Z" fill="#000000" fill-rule="nonzero" fill-opacity="1" /><path clip-path="url(#clip640)" d="M1932.9 1544.91 L1949.22 1544.91 L1949.22 1548.85 L1927.27 1548.85 L1927.27 1544.91 Q1929.93 1542.16 1934.52 1537.53 Q1939.12 1532.88 1940.3 1531.53 Q1942.55 1529.01 1943.43 1527.27 Q1944.33 1525.51 1944.33 1523.82 Q1944.33 1521.07 1942.39 1519.33 Q1940.47 1517.6 1937.36 1517.6 Q1935.16 1517.6 1932.71 1518.36 Q1930.28 1519.13 1927.5 1520.68 L1927.5 1515.95 Q1930.33 1514.82 1932.78 1514.24 Q1935.23 1513.66 1937.27 1513.66 Q1942.64 1513.66 1945.84 1516.35 Q1949.03 1519.03 1949.03 1523.52 Q1949.03 1525.65 1948.22 1527.57 Q1947.43 1529.47 1945.33 1532.07 Q1944.75 1532.74 1941.65 1535.95 Q1938.54 1539.15 1932.9 1544.91 Z" fill="#000000" fill-rule="nonzero" fill-opacity="1" /><path clip-path="url(#clip640)" d="M1969.03 1517.37 Q1965.42 1517.37 1963.59 1520.93 Q1961.78 1524.47 1961.78 1531.6 Q1961.78 1538.71 1963.59 1542.27 Q1965.42 1545.82 1969.03 1545.82 Q1972.66 1545.82 1974.47 1542.27 Q1976.3 1538.71 1976.3 1531.6 Q1976.3 1524.47 1974.47 1520.93 Q1972.66 1517.37 1969.03 1517.37 M1969.03 1513.66 Q1974.84 1513.66 1977.9 1518.27 Q1980.97 1522.85 1980.97 1531.6 Q1980.97 1540.33 1977.9 1544.94 Q1974.84 1549.52 1969.03 1549.52 Q1963.22 1549.52 1960.14 1544.94 Q1957.09 1540.33 1957.09 1531.6 Q1957.09 1522.85 1960.14 1518.27 Q1963.22 1513.66 1969.03 1513.66 Z" fill="#000000" fill-rule="nonzero" fill-opacity="1" /><polyline clip-path="url(#clip642)" style="stroke:#000000; stroke-linecap:round; stroke-linejoin:round; stroke-width:2; stroke-opacity:0.1; fill:none" points="140.696,1456.09 2352.76,1456.09 "/>
<polyline clip-path="url(#clip642)" style="stroke:#000000; stroke-linecap:round; stroke-linejoin:round; stroke-width:2; stroke-opacity:0.1; fill:none" points="140.696,1193.28 2352.76,1193.28 "/>
<polyline clip-path="url(#clip642)" style="stroke:#000000; stroke-linecap:round; stroke-linejoin:round; stroke-width:2; stroke-opacity:0.1; fill:none" points="140.696,930.462 2352.76,930.462 "/>
<polyline clip-path="url(#clip642)" style="stroke:#000000; stroke-linecap:round; stroke-linejoin:round; stroke-width:2; stroke-opacity:0.1; fill:none" points="140.696,667.649 2352.76,667.649 "/>
<polyline clip-path="url(#clip642)" style="stroke:#000000; stroke-linecap:round; stroke-linejoin:round; stroke-width:2; stroke-opacity:0.1; fill:none" points="140.696,404.835 2352.76,404.835 "/>
<polyline clip-path="url(#clip642)" style="stroke:#000000; stroke-linecap:round; stroke-linejoin:round; stroke-width:2; stroke-opacity:0.1; fill:none" points="140.696,142.021 2352.76,142.021 "/>
<polyline clip-path="url(#clip640)" style="stroke:#000000; stroke-linecap:round; stroke-linejoin:round; stroke-width:4; stroke-opacity:1; fill:none" points="140.696,1486.45 140.696,47.2441 "/>
<polyline clip-path="url(#clip640)" style="stroke:#000000; stroke-linecap:round; stroke-linejoin:round; stroke-width:4; stroke-opacity:1; fill:none" points="140.696,1456.09 159.593,1456.09 "/>
<polyline clip-path="url(#clip640)" style="stroke:#000000; stroke-linecap:round; stroke-linejoin:round; stroke-width:4; stroke-opacity:1; fill:none" points="140.696,1193.28 159.593,1193.28 "/>
<polyline clip-path="url(#clip640)" style="stroke:#000000; stroke-linecap:round; stroke-linejoin:round; stroke-width:4; stroke-opacity:1; fill:none" points="140.696,930.462 159.593,930.462 "/>
<polyline clip-path="url(#clip640)" style="stroke:#000000; stroke-linecap:round; stroke-linejoin:round; stroke-width:4; stroke-opacity:1; fill:none" points="140.696,667.649 159.593,667.649 "/>
<polyline clip-path="url(#clip640)" style="stroke:#000000; stroke-linecap:round; stroke-linejoin:round; stroke-width:4; stroke-opacity:1; fill:none" points="140.696,404.835 159.593,404.835 "/>
<polyline clip-path="url(#clip640)" style="stroke:#000000; stroke-linecap:round; stroke-linejoin:round; stroke-width:4; stroke-opacity:1; fill:none" points="140.696,142.021 159.593,142.021 "/>
<path clip-path="url(#clip640)" d="M92.7512 1441.89 Q89.1401 1441.89 87.3114 1445.45 Q85.5058 1448.99 85.5058 1456.12 Q85.5058 1463.23 87.3114 1466.8 Q89.1401 1470.34 92.7512 1470.34 Q96.3854 1470.34 98.1909 1466.8 Q100.02 1463.23 100.02 1456.12 Q100.02 1448.99 98.1909 1445.45 Q96.3854 1441.89 92.7512 1441.89 M92.7512 1438.18 Q98.5613 1438.18 101.617 1442.79 Q104.696 1447.37 104.696 1456.12 Q104.696 1464.85 101.617 1469.46 Q98.5613 1474.04 92.7512 1474.04 Q86.941 1474.04 83.8623 1469.46 Q80.8068 1464.85 80.8068 1456.12 Q80.8068 1447.37 83.8623 1442.79 Q86.941 1438.18 92.7512 1438.18 Z" fill="#000000" fill-rule="nonzero" fill-opacity="1" /><path clip-path="url(#clip640)" d="M83.7929 1176 L102.149 1176 L102.149 1179.93 L88.0753 1179.93 L88.0753 1188.4 Q89.0938 1188.06 90.1123 1187.89 Q91.1308 1187.71 92.1493 1187.71 Q97.9363 1187.71 101.316 1190.88 Q104.696 1194.05 104.696 1199.47 Q104.696 1205.05 101.223 1208.15 Q97.7511 1211.23 91.4317 1211.23 Q89.2558 1211.23 86.9873 1210.86 Q84.7419 1210.49 82.3346 1209.75 L82.3346 1205.05 Q84.4179 1206.18 86.6401 1206.74 Q88.8623 1207.29 91.3391 1207.29 Q95.3437 1207.29 97.6817 1205.19 Q100.02 1203.08 100.02 1199.47 Q100.02 1195.86 97.6817 1193.75 Q95.3437 1191.64 91.3391 1191.64 Q89.4641 1191.64 87.5892 1192.06 Q85.7373 1192.48 83.7929 1193.36 L83.7929 1176 Z" fill="#000000" fill-rule="nonzero" fill-opacity="1" /><path clip-path="url(#clip640)" d="M53.3995 943.807 L61.0384 943.807 L61.0384 917.442 L52.7282 919.108 L52.7282 914.849 L60.9921 913.182 L65.668 913.182 L65.668 943.807 L73.3068 943.807 L73.3068 947.742 L53.3995 947.742 L53.3995 943.807 Z" fill="#000000" fill-rule="nonzero" fill-opacity="1" /><path clip-path="url(#clip640)" d="M92.7512 916.261 Q89.1401 916.261 87.3114 919.826 Q85.5058 923.367 85.5058 930.497 Q85.5058 937.603 87.3114 941.168 Q89.1401 944.71 92.7512 944.71 Q96.3854 944.71 98.1909 941.168 Q100.02 937.603 100.02 930.497 Q100.02 923.367 98.1909 919.826 Q96.3854 916.261 92.7512 916.261 M92.7512 912.557 Q98.5613 912.557 101.617 917.164 Q104.696 921.747 104.696 930.497 Q104.696 939.224 101.617 943.83 Q98.5613 948.414 92.7512 948.414 Q86.941 948.414 83.8623 943.83 Q80.8068 939.224 80.8068 930.497 Q80.8068 921.747 83.8623 917.164 Q86.941 912.557 92.7512 912.557 Z" fill="#000000" fill-rule="nonzero" fill-opacity="1" /><path clip-path="url(#clip640)" d="M54.3949 680.993 L62.0337 680.993 L62.0337 654.628 L53.7236 656.294 L53.7236 652.035 L61.9874 650.369 L66.6633 650.369 L66.6633 680.993 L74.3022 680.993 L74.3022 684.929 L54.3949 684.929 L54.3949 680.993 Z" fill="#000000" fill-rule="nonzero" fill-opacity="1" /><path clip-path="url(#clip640)" d="M83.7929 650.369 L102.149 650.369 L102.149 654.304 L88.0753 654.304 L88.0753 662.776 Q89.0938 662.429 90.1123 662.267 Q91.1308 662.081 92.1493 662.081 Q97.9363 662.081 101.316 665.253 Q104.696 668.424 104.696 673.841 Q104.696 679.419 101.223 682.521 Q97.7511 685.6 91.4317 685.6 Q89.2558 685.6 86.9873 685.23 Q84.7419 684.859 82.3346 684.118 L82.3346 679.419 Q84.4179 680.554 86.6401 681.109 Q88.8623 681.665 91.3391 681.665 Q95.3437 681.665 97.6817 679.558 Q100.02 677.452 100.02 673.841 Q100.02 670.23 97.6817 668.123 Q95.3437 666.017 91.3391 666.017 Q89.4641 666.017 87.5892 666.433 Q85.7373 666.85 83.7929 667.73 L83.7929 650.369 Z" fill="#000000" fill-rule="nonzero" fill-opacity="1" /><path clip-path="url(#clip640)" d="M56.6171 418.18 L72.9365 418.18 L72.9365 422.115 L50.9921 422.115 L50.9921 418.18 Q53.6541 415.425 58.2375 410.796 Q62.8439 406.143 64.0245 404.8 Q66.2698 402.277 67.1494 400.541 Q68.0522 398.782 68.0522 397.092 Q68.0522 394.337 66.1078 392.601 Q64.1865 390.865 61.0847 390.865 Q58.8856 390.865 56.4319 391.629 Q54.0014 392.393 51.2236 393.944 L51.2236 389.222 Q54.0477 388.087 56.5014 387.509 Q58.955 386.93 60.9921 386.93 Q66.3624 386.93 69.5568 389.615 Q72.7513 392.3 72.7513 396.791 Q72.7513 398.921 71.9411 400.842 Q71.1541 402.74 69.0476 405.333 Q68.4689 406.004 65.367 409.221 Q62.2652 412.416 56.6171 418.18 Z" fill="#000000" fill-rule="nonzero" fill-opacity="1" /><path clip-path="url(#clip640)" d="M92.7512 390.634 Q89.1401 390.634 87.3114 394.198 Q85.5058 397.74 85.5058 404.87 Q85.5058 411.976 87.3114 415.541 Q89.1401 419.083 92.7512 419.083 Q96.3854 419.083 98.1909 415.541 Q100.02 411.976 100.02 404.87 Q100.02 397.74 98.1909 394.198 Q96.3854 390.634 92.7512 390.634 M92.7512 386.93 Q98.5613 386.93 101.617 391.536 Q104.696 396.12 104.696 404.87 Q104.696 413.596 101.617 418.203 Q98.5613 422.786 92.7512 422.786 Q86.941 422.786 83.8623 418.203 Q80.8068 413.596 80.8068 404.87 Q80.8068 396.12 83.8623 391.536 Q86.941 386.93 92.7512 386.93 Z" fill="#000000" fill-rule="nonzero" fill-opacity="1" /><path clip-path="url(#clip640)" d="M57.6125 155.366 L73.9318 155.366 L73.9318 159.301 L51.9875 159.301 L51.9875 155.366 Q54.6495 152.611 59.2328 147.982 Q63.8393 143.329 65.0198 141.987 Q67.2652 139.463 68.1448 137.727 Q69.0476 135.968 69.0476 134.278 Q69.0476 131.524 67.1032 129.788 Q65.1819 128.051 62.08 128.051 Q59.881 128.051 57.4273 128.815 Q54.9967 129.579 52.219 131.13 L52.219 126.408 Q55.043 125.274 57.4967 124.695 Q59.9504 124.116 61.9874 124.116 Q67.3578 124.116 70.5522 126.801 Q73.7466 129.487 73.7466 133.977 Q73.7466 136.107 72.9365 138.028 Q72.1494 139.926 70.0429 142.519 Q69.4642 143.19 66.3624 146.408 Q63.2606 149.602 57.6125 155.366 Z" fill="#000000" fill-rule="nonzero" fill-opacity="1" /><path clip-path="url(#clip640)" d="M83.7929 124.741 L102.149 124.741 L102.149 128.676 L88.0753 128.676 L88.0753 137.149 Q89.0938 136.801 90.1123 136.639 Q91.1308 136.454 92.1493 136.454 Q97.9363 136.454 101.316 139.625 Q104.696 142.797 104.696 148.213 Q104.696 153.792 101.223 156.894 Q97.7511 159.973 91.4317 159.973 Q89.2558 159.973 86.9873 159.602 Q84.7419 159.232 82.3346 158.491 L82.3346 153.792 Q84.4179 154.926 86.6401 155.482 Q88.8623 156.037 91.3391 156.037 Q95.3437 156.037 97.6817 153.931 Q100.02 151.824 100.02 148.213 Q100.02 144.602 97.6817 142.496 Q95.3437 140.389 91.3391 140.389 Q89.4641 140.389 87.5892 140.806 Q85.7373 141.223 83.7929 142.102 L83.7929 124.741 Z" fill="#000000" fill-rule="nonzero" fill-opacity="1" /><polyline clip-path="url(#clip642)" style="stroke:#009af9; stroke-linecap:round; stroke-linejoin:round; stroke-width:4; stroke-opacity:1; fill:none" points="203.301,1331.87 217.894,124.564 232.488,686.854 247.081,792.128 261.674,686.779 276.268,112.983 290.861,1175.75 305.454,1311.86 320.048,1364.87 334.641,1376.36 349.235,1364.23 363.828,1309.77 378.421,124.564 393.015,1331.87 407.608,129.244 422.201,683.775 436.795,782.07 451.388,676.668 465.981,1316.52 480.575,1172.35 495.168,1313.08 509.761,1364.57 524.355,1375.2 538.948,1363.41 553.541,686.854 568.135,129.244 582.728,1331.87 597.322,87.9763 611.915,665.654 626.508,778.333 641.102,1366.04 655.695,1313.5 670.288,1165.11 684.882,1309.62 699.475,1363.16 714.068,1374.3 728.662,792.128 743.255,683.775 757.848,87.9763 772.442,1331.87 787.035,95.9083 801.628,681.619 816.222,1376.47 830.815,1364.76 845.409,1305.94 860.002,1170.94 874.595,1310.63 889.189,1363.15 903.782,686.779 918.375,782.07 932.969,665.654 947.562,95.9083 962.155,1331.87 976.749,124.618 991.342,1364.57 1005.94,1375.54 1020.53,1362.02 1035.12,1311.52 1049.72,1167.47 1064.31,1309.1 1078.9,112.983 1093.5,676.668 1108.09,778.333 1122.68,681.619 1137.28,124.618 1151.87,1331.87 1166.46,1310.21 1181.06,1364.21 1195.65,1374.7 1210.24,1364.8 1224.84,1310.33 1239.43,1160 1254.02,1175.75 1268.62,1316.52 1283.21,1366.04 1297.8,1376.47 1312.4,1364.57 1326.99,1310.21 1341.58,1403.53 1356.18,1435.87 1370.77,1444.23 1385.36,1445.72 1399.96,1443.91 1414.55,1434.73 1429.14,1311.86 1443.74,1172.35 1458.33,1313.5 1472.92,1364.76 1487.52,1375.54 1502.11,1364.21 1516.7,1435.87 1531.3,1403.53 1545.89,1435.7 1560.48,1444.03 1575.08,1445.59 1589.67,1443.93 1604.26,1364.87 1618.86,1313.08 1633.45,1165.11 1648.04,1305.94 1662.64,1362.02 1677.23,1374.7 1691.82,1444.23 1706.42,1435.7 1721.01,1403.53 1735.6,1434.23 1750.2,1443.75 1764.79,1445.45 1779.38,1376.36 1793.98,1364.57 1808.57,1309.62 1823.16,1170.94 1837.76,1311.52 1852.35,1364.8 1866.94,1445.72 1881.54,1444.03 1896.13,1434.23 1910.72,1403.53 1925.32,1435.32 1939.91,1443.91 1954.5,1364.23 1969.1,1375.2 1983.69,1363.16 1998.28,1310.63 2012.88,1167.47 2027.47,1310.33 2042.06,1443.91 2056.66,1445.59 2071.25,1443.75 2085.84,1435.32 2100.44,1403.53 2115.03,1434.62 2129.62,1309.77 2144.22,1363.41 2158.81,1374.3 2173.4,1363.15 2188,1309.1 2202.59,1160 2217.18,1434.73 2231.78,1443.93 2246.37,1445.45 2260.96,1443.91 2275.56,1434.62 2290.15,1403.53 "/>
<polyline clip-path="url(#clip642)" style="stroke:#e26f46; stroke-linecap:round; stroke-linejoin:round; stroke-width:4; stroke-opacity:1; fill:none" points="203.301,1403.53 217.894,1435.87 232.488,1445.72 247.081,1443.91 261.674,1444.23 276.268,1434.73 290.861,1175.75 305.454,1316.52 320.048,1310.21 334.641,1364.57 349.235,1366.04 363.828,1376.47 378.421,1435.87 393.015,1403.53 407.608,1444.03 422.201,1445.59 436.795,1435.7 451.388,1443.93 465.981,1311.86 480.575,1172.35 495.168,1364.21 509.761,1375.54 524.355,1313.5 538.948,1364.76 553.541,1445.72 568.135,1444.03 582.728,1403.53 597.322,1435.32 611.915,1434.23 626.508,1443.91 641.102,1376.36 655.695,1364.57 670.288,1364.8 684.882,1311.52 699.475,1309.62 714.068,1170.94 728.662,1443.91 743.255,1445.59 757.848,1435.32 772.442,1403.53 787.035,1443.75 801.628,1434.62 816.222,1364.23 830.815,1375.2 845.409,1310.33 860.002,1167.47 874.595,1363.16 889.189,1310.63 903.782,1444.23 918.375,1435.7 932.969,1434.23 947.562,1443.75 962.155,1403.53 976.749,1445.45 991.342,1364.87 1005.94,1313.08 1020.53,1374.7 1035.12,1362.02 1049.72,1165.11 1064.31,1305.94 1078.9,1434.73 1093.5,1443.93 1108.09,1443.91 1122.68,1434.62 1137.28,1445.45 1151.87,1403.53 1166.46,1309.77 1181.06,1363.41 1195.65,1160 1210.24,1309.1 1224.84,1374.3 1239.43,1363.15 1254.02,1175.75 1268.62,1311.86 1283.21,1376.36 1297.8,1364.23 1312.4,1364.87 1326.99,1309.77 1341.58,1331.87 1356.18,124.564 1370.77,112.983 1385.36,686.779 1399.96,686.854 1414.55,792.128 1429.14,1316.52 1443.74,1172.35 1458.33,1364.57 1472.92,1375.2 1487.52,1313.08 1502.11,1363.41 1516.7,124.564 1531.3,1331.87 1545.89,676.668 1560.48,782.07 1575.08,129.244 1589.67,683.775 1604.26,1310.21 1618.86,1364.21 1633.45,1364.8 1648.04,1310.33 1662.64,1374.7 1677.23,1160 1691.82,112.983 1706.42,676.668 1721.01,1331.87 1735.6,124.618 1750.2,778.333 1764.79,681.619 1779.38,1364.57 1793.98,1375.54 1808.57,1311.52 1823.16,1167.47 1837.76,1362.02 1852.35,1309.1 1866.94,686.779 1881.54,782.07 1896.13,124.618 1910.72,1331.87 1925.32,665.654 1939.91,95.9083 1954.5,1366.04 1969.1,1313.5 1983.69,1309.62 1998.28,1363.16 2012.88,1165.11 2027.47,1374.3 2042.06,686.854 2056.66,129.244 2071.25,778.333 2085.84,665.654 2100.44,1331.87 2115.03,87.9763 2129.62,1376.47 2144.22,1364.76 2158.81,1170.94 2173.4,1310.63 2188,1305.94 2202.59,1363.15 2217.18,792.128 2231.78,683.775 2246.37,681.619 2260.96,95.9083 2275.56,87.9763 2290.15,1331.87 "/>
<path clip-path="url(#clip640)" d="M214.431 250.738 L531.979 250.738 L531.979 95.2176 L214.431 95.2176  Z" fill="#ffffff" fill-rule="evenodd" fill-opacity="1"/>
<polyline clip-path="url(#clip640)" style="stroke:#000000; stroke-linecap:round; stroke-linejoin:round; stroke-width:4; stroke-opacity:1; fill:none" points="214.431,250.738 531.979,250.738 531.979,95.2176 214.431,95.2176 214.431,250.738 "/>
<polyline clip-path="url(#clip640)" style="stroke:#009af9; stroke-linecap:round; stroke-linejoin:round; stroke-width:4; stroke-opacity:1; fill:none" points="239.009,147.058 386.48,147.058 "/>
<path clip-path="url(#clip640)" d="M438.929 132.44 L438.929 137.37 Q436.568 135.171 433.882 134.083 Q431.22 132.995 428.211 132.995 Q422.285 132.995 419.137 136.629 Q415.989 140.24 415.989 147.092 Q415.989 153.921 419.137 157.555 Q422.285 161.166 428.211 161.166 Q431.22 161.166 433.882 160.078 Q436.568 158.99 438.929 156.791 L438.929 161.676 Q436.475 163.342 433.72 164.176 Q430.989 165.009 427.933 165.009 Q420.086 165.009 415.572 160.217 Q411.058 155.402 411.058 147.092 Q411.058 138.759 415.572 133.967 Q420.086 129.153 427.933 129.153 Q431.035 129.153 433.767 129.986 Q436.521 130.796 438.929 132.44 Z" fill="#000000" fill-rule="nonzero" fill-opacity="1" /><path clip-path="url(#clip640)" d="M446.151 129.778 L453.118 129.778 L461.938 153.296 L470.804 129.778 L477.771 129.778 L477.771 164.338 L473.211 164.338 L473.211 133.99 L464.299 157.694 L459.6 157.694 L450.688 133.99 L450.688 164.338 L446.151 164.338 L446.151 129.778 Z" fill="#000000" fill-rule="nonzero" fill-opacity="1" /><polyline clip-path="url(#clip640)" style="stroke:#e26f46; stroke-linecap:round; stroke-linejoin:round; stroke-width:4; stroke-opacity:1; fill:none" points="239.009,198.898 386.48,198.898 "/>
<path clip-path="url(#clip640)" d="M433.304 182.752 L433.304 187.312 Q430.642 186.039 428.281 185.414 Q425.92 184.789 423.72 184.789 Q419.901 184.789 417.818 186.27 Q415.758 187.752 415.758 190.483 Q415.758 192.775 417.123 193.955 Q418.512 195.113 422.355 195.83 L425.179 196.409 Q430.41 197.405 432.887 199.928 Q435.387 202.428 435.387 206.641 Q435.387 211.664 432.007 214.256 Q428.651 216.849 422.146 216.849 Q419.693 216.849 416.915 216.293 Q414.16 215.738 411.197 214.65 L411.197 209.835 Q414.045 211.432 416.776 212.242 Q419.508 213.053 422.146 213.053 Q426.151 213.053 428.327 211.479 Q430.503 209.904 430.503 206.988 Q430.503 204.442 428.929 203.006 Q427.378 201.571 423.813 200.854 L420.966 200.298 Q415.734 199.256 413.396 197.034 Q411.058 194.812 411.058 190.854 Q411.058 186.27 414.276 183.631 Q417.517 180.993 423.188 180.993 Q425.619 180.993 428.142 181.432 Q430.665 181.872 433.304 182.752 Z" fill="#000000" fill-rule="nonzero" fill-opacity="1" /><path clip-path="url(#clip640)" d="M468.558 184.28 L468.558 189.21 Q466.197 187.011 463.512 185.923 Q460.85 184.835 457.841 184.835 Q451.915 184.835 448.767 188.469 Q445.618 192.08 445.618 198.932 Q445.618 205.761 448.767 209.395 Q451.915 213.006 457.841 213.006 Q460.85 213.006 463.512 211.918 Q466.197 210.83 468.558 208.631 L468.558 213.516 Q466.104 215.182 463.35 216.016 Q460.618 216.849 457.563 216.849 Q449.716 216.849 445.202 212.057 Q440.688 207.242 440.688 198.932 Q440.688 190.599 445.202 185.807 Q449.716 180.993 457.563 180.993 Q460.665 180.993 463.396 181.826 Q466.151 182.636 468.558 184.28 Z" fill="#000000" fill-rule="nonzero" fill-opacity="1" /><path clip-path="url(#clip640)" d="M475.78 181.618 L482.748 181.618 L491.567 205.136 L500.433 181.618 L507.401 181.618 L507.401 216.178 L502.84 216.178 L502.84 185.83 L493.928 209.534 L489.229 209.534 L480.317 185.83 L480.317 216.178 L475.78 216.178 L475.78 181.618 Z" fill="#000000" fill-rule="nonzero" fill-opacity="1" /></svg>
